<?xml version="1.0" encoding="utf-8"?>
<!-- Svg Vector Icons : http://www.onlinewebfonts.com/icon -->
<!DOCTYPE svg PUBLIC "-//W3C//DTD SVG 1.1//EN" "http://www.w3.org/Graphics/SVG/1.1/DTD/svg11.dtd">
<svg version="1.1" xmlns="http://www.w3.org/2000/svg" xmlns:xlink="http://www.w3.org/1999/xlink" x="0px" y="0px" viewBox="0 0 256 256" enable-background="new 0 0 256 256" xml:space="preserve">
<metadata> Svg Vector Icons : http://www.onlinewebfonts.com/icon </metadata>
<g><g><g><path fill="#000000" d="M119,10.3C69.1,14.1,26.4,49.7,13.8,98c-4.9,19-5.1,40.2-0.2,59.1c3.1,12.4,9,25.6,16.1,36.2c38,56.9,115.3,69.9,169.9,28.6c6.2-4.7,17.6-16.1,22.3-22.3c35.2-46.5,31.6-111.1-8.4-152.9C188.7,20.9,154.3,7.6,119,10.3z M143.5,35.1c25.4,4.1,48.4,18.9,62.9,40.6c18.7,28,21.1,64.4,6.1,94.2c-9.6,19-23.7,33.1-42.7,42.7c-26,13-57.5,13-83.5,0c-30.2-15.2-49.4-43.7-52.2-77.2c-3.8-46.9,28.1-89.6,74.2-99.5C119.7,33.4,131.6,33.1,143.5,35.1z"/><path fill="#000000" d="M107.5,103.8c-17,16.7-20,20-19.9,21.2c0.4,2.6,2.2,3,15.9,3h12.6v20.8c0,17.5,0.2,21.2,0.9,23.1c4.1,9.7,17.9,9.7,22,0c0.7-1.8,0.9-5.6,0.9-23v-20.8l13.4-0.2c12.5-0.2,13.5-0.2,14.3-1.3c0.5-0.7,0.8-1.6,0.8-2.1c0-0.8-39.6-40.4-40.4-40.4C127.8,84.1,118.6,93,107.5,103.8z"/></g></g></g>
</svg>