<?xml version="1.0" encoding="utf-8"?>
<!-- Svg Vector Icons : http://www.onlinewebfonts.com/icon -->
<!DOCTYPE svg PUBLIC "-//W3C//DTD SVG 1.1//EN" "http://www.w3.org/Graphics/SVG/1.1/DTD/svg11.dtd">
<svg version="1.1" xmlns="http://www.w3.org/2000/svg" xmlns:xlink="http://www.w3.org/1999/xlink" x="0px" y="0px" viewBox="0 0 256 256" enable-background="new 0 0 256 256" xml:space="preserve">
<metadata> Svg Vector Icons : http://www.onlinewebfonts.com/icon </metadata>
<g><g><path fill="#000000" d="M128,246c-65.1,0-118-52.9-118-118C10,62.9,62.9,10,128,10c65.1,0,118,52.9,118,118C246,193.1,193.1,246,128,246z M128,25.6C71.5,25.6,25.6,71.5,25.6,128c0,56.5,45.9,102.4,102.4,102.4c56.5,0,102.4-45.9,102.4-102.4C230.4,71.5,184.5,25.6,128,25.6z"/><path fill="#000000" d="M116.6,71.6c0,6.3,5.1,11.4,11.4,11.4s11.4-5.1,11.4-11.4c0-6.3-5.1-11.4-11.4-11.4S116.6,65.3,116.6,71.6z"/><path fill="#000000" d="M138.2,185c0,5.9-4.6,10.8-10.2,10.8c-5.6,0-10.2-4.8-10.2-10.8v-74.3c0-5.9,4.6-10.8,10.2-10.8c5.6,0,10.2,4.8,10.2,10.8V185z"/></g></g>
</svg>