<?xml version="1.0" encoding="utf-8"?>
<!-- Svg Vector Icons : http://www.onlinewebfonts.com/icon -->
<!DOCTYPE svg PUBLIC "-//W3C//DTD SVG 1.1//EN" "http://www.w3.org/Graphics/SVG/1.1/DTD/svg11.dtd">
<svg version="1.1" xmlns="http://www.w3.org/2000/svg" xmlns:xlink="http://www.w3.org/1999/xlink" x="0px" y="0px" viewBox="0 0 256 256" enable-background="new 0 0 256 256" xml:space="preserve">
<metadata> Svg Vector Icons : http://www.onlinewebfonts.com/icon </metadata>
<g><g><path fill="#000000" d="M243.2,56.7c-4-5.2-11.3-6-18.3-6H54.6l-2.3-17.1c-1.3-10.2-6.3-11.5-17.5-11.5H16.7c-5.3,0-6.7,5.3-6.7,8.3c0,2.9,2.1,7.5,7.3,7.5h9.5c7,0.1,9.6,4.1,10.6,9.1l19.8,131.7c1.3,10.4,10.3,16.9,21.2,16.9h135.7c4.4,0,7.9-2,7.9-7.2c0-5-3.3-7.9-7.9-7.9H82c-5.6,0-9.2-3.4-9.9-8.5l-1.8-11.3h131c10,0,18.3-5.5,20.7-14.6l23-74.3C246.8,65.7,246.1,60.6,243.2,56.7L243.2,56.7z M226.8,79.6l-18.4,59.7c-1.2,4.4-5.2,6.3-10.4,6.3H67.8L56.9,66h159.5c3.7,0,9.2,0.3,11.2,2.9C229.3,71.2,227.6,76.6,226.8,79.6L226.8,79.6z M103.9,218.5c0,8.5-6.9,15.4-15.4,15.4c-8.5,0-15.4-6.9-15.4-15.4c0-8.5,6.9-15.4,15.4-15.4C97,203.1,103.9,210,103.9,218.5L103.9,218.5z M201.6,218.5c0,8.5-6.9,15.4-15.4,15.4c-8.5,0-15.4-6.9-15.4-15.4c0-8.5,6.9-15.4,15.4-15.4C194.7,203.1,201.6,210,201.6,218.5L201.6,218.5z"/></g></g>
</svg>