<?xml version="1.0" encoding="utf-8"?>
<!-- Svg Vector Icons : http://www.onlinewebfonts.com/icon -->
<!DOCTYPE svg PUBLIC "-//W3C//DTD SVG 1.1//EN" "http://www.w3.org/Graphics/SVG/1.1/DTD/svg11.dtd">
<svg version="1.1" xmlns="http://www.w3.org/2000/svg" xmlns:xlink="http://www.w3.org/1999/xlink" x="0px" y="0px" viewBox="0 0 256 256" enable-background="new 0 0 256 256" xml:space="preserve">
<metadata> Svg Vector Icons : http://www.onlinewebfonts.com/icon </metadata>
<g><g><g><path fill="#000000" d="M119.8,10.1C96.8,12,75.3,20,57.1,33.5c-6.5,4.8-18.8,17.1-23.7,23.7C17.8,78.1,10.1,101.8,10,128.1c0,26.3,7.7,49.5,23.6,71c4.7,6.4,17,18.7,23.5,23.5c16.3,12,34,19.4,54.4,22.6c7.9,1.2,25.2,1.2,33.1,0c20.3-3.2,38.3-10.6,54.4-22.6c6.4-4.8,18.7-17.1,23.5-23.5c12-16.2,19.6-34.4,22.6-54.4c1.3-8.6,1.3-24.5,0-32.9c-3.1-20.6-10.4-38.3-22.6-54.7c-4.8-6.4-17.1-18.7-23.5-23.5c-16.4-12.1-34.4-19.6-54.2-22.6C139.3,10.3,124.8,9.7,119.8,10.1z M140.1,25.5c46.8,5.8,83.7,42.1,90.1,88.8c1.7,11.9,0.8,27-2.1,38.5c-9.3,37.2-38.2,66-75.4,75.4c-18.9,4.8-40.4,3.7-59.3-2.9c-25.6-9-47.4-28.9-59-53.6c-6.4-13.7-9.6-28-9.6-43.6c0-12.2,1.5-21.5,5.3-32.8c12.5-37.5,45.7-64.6,85.2-69.7C120.4,25,135,24.9,140.1,25.5z"/><path fill="#000000" d="M119.1,73.2v8.3l-4.5,1.4c-5.5,1.8-10.8,5.2-13.5,8.7c-4.3,5.6-6.4,13.1-5.3,19.2c1.8,10.6,9.8,17.7,25.4,22.4c10.2,3.1,17.2,7.2,19.1,11.3c1,2.1,1.1,5.9,0.2,8.9c-0.9,3.2-5.2,7.3-9.1,8.7c-5.2,1.9-12.9,2-21.9,0.2l-7.2-1.5l-1.8,7.2l-1.8,7.2l3.5,0.8c4.2,0.9,12.1,2.3,14.8,2.5l1.8,0.2l0.2,7.7l0.2,7.8h7.3h7.4v-8.6v-8.6l3-1.2c12.6-4.6,21-17.8,19.2-30.3c-1.7-12.1-10.9-20.3-29.4-26.3c-8.3-2.7-11.7-4.4-14.2-7.2c-1.5-1.7-1.8-2.4-1.8-4.6c0-5.2,2.9-8.7,8.8-10.6c4.9-1.5,14-1.5,21.6,0.1c3,0.6,5.6,0.9,5.8,0.7c0.2-0.2,1.3-3.3,2.4-6.9c1.6-5.3,1.8-6.6,1.3-6.9c-0.9-0.5-11.8-2.6-13.8-2.6c-3,0-3,0.1-3-8.5V65h-7.4h-7.4V73.2L119.1,73.2z"/></g></g></g>
</svg>