<?xml version="1.0" standalone="no"?>
<!DOCTYPE svg PUBLIC "-//W3C//DTD SVG 20010904//EN"
 "http://www.w3.org/TR/2001/REC-SVG-20010904/DTD/svg10.dtd">
<svg version="1.0" xmlns="http://www.w3.org/2000/svg"
 width="4096.000000pt" height="4096.000000pt" viewBox="0 0 4096.000000 4096.000000"
 preserveAspectRatio="xMidYMid meet">

<g transform="translate(0.000000,4096.000000) scale(0.100000,-0.100000)"
fill="#000000" stroke="none">
<path d="M6647 35829 c-569 -66 -1087 -439 -1355 -975 -277 -553 -215 -1189
166 -1714 36 -50 1009 -1030 2930 -2952 1814 -1814 2873 -2881 2867 -2887 -6
-5 -102 -82 -215 -172 -1850 -1468 -3598 -3406 -5087 -5639 -93 -140 -271
-413 -395 -606 -124 -192 -241 -371 -260 -396 -72 -94 -174 -319 -212 -465
-71 -276 -62 -609 23 -871 55 -167 76 -206 357 -680 613 -1033 1523 -2275
2448 -3342 417 -481 711 -796 1216 -1301 715 -716 1196 -1149 1903 -1713 3229
-2576 6739 -3785 10322 -3555 2159 138 4204 762 6278 1916 l188 105 2602
-2601 c1431 -1430 2620 -2615 2642 -2632 213 -169 521 -311 800 -370 154 -33
384 -33 535 0 319 68 638 224 863 422 158 139 382 518 475 802 118 361 132
696 43 1043 -55 216 -175 449 -327 634 -29 36 -6246 6257 -13816 13826 -10713
10711 -13781 13772 -13843 13816 -351 245 -755 353 -1148 307z m7520 -11421
c277 -277 503 -508 503 -515 0 -7 -29 -56 -64 -110 -153 -236 -346 -605 -463
-883 -429 -1021 -573 -2083 -443 -3251 145 -1293 628 -2433 1425 -3365 108
-127 372 -398 530 -545 44 -41 138 -136 209 -212 635 -681 1491 -1222 2416
-1528 707 -233 1399 -341 2190 -342 405 0 703 24 1076 88 780 134 1559 432
2219 849 66 42 124 76 130 76 5 0 315 -305 689 -679 l678 -678 -153 -83
c-1308 -708 -2548 -1114 -3782 -1239 -580 -59 -1292 -54 -1902 15 -1208 135
-2420 505 -3615 1104 -2178 1091 -4344 3005 -6196 5475 -357 475 -740 1026
-731 1049 11 28 618 868 861 1191 1097 1460 2187 2641 3366 3646 235 200 531
439 545 439 5 0 236 -226 512 -502z m5122 -5122 c1925 -1925 2044 -2046 2020
-2054 -49 -19 -297 -72 -434 -92 -180 -27 -544 -38 -735 -21 -640 57 -1252
305 -1765 717 -140 113 -367 334 -486 475 -415 489 -682 1054 -778 1645 -35
218 -44 357 -38 645 5 287 14 354 65 499 29 82 93 230 101 230 3 0 926 -920
2050 -2044z"/>
<path d="M20260 30710 c-549 -61 -992 -329 -1246 -756 -269 -452 -317 -1113
-119 -1635 189 -497 596 -842 1136 -963 151 -34 276 -44 694 -56 363 -10 590
-26 880 -61 1626 -195 3214 -795 4795 -1812 1967 -1265 3907 -3217 5512 -5546
92 -134 168 -247 168 -250 0 -4 -38 -49 -85 -100 -281 -308 -546 -704 -825
-1231 -56 -107 -127 -231 -156 -276 -218 -333 -329 -768 -296 -1152 30 -344
128 -605 316 -847 138 -176 269 -274 550 -410 461 -224 699 -280 1047 -245
413 42 767 209 1003 473 141 158 774 1011 1128 1522 395 570 921 1400 1019
1609 193 414 188 929 -13 1331 -169 336 -665 1124 -1073 1705 -1613 2298
-3569 4308 -5600 5757 -2687 1916 -5525 2912 -8400 2948 -192 2 -388 0 -435
-5z"/>
</g>
</svg>
