<?xml version="1.0" encoding="utf-8"?>
<!-- Svg Vector Icons : http://www.onlinewebfonts.com/icon -->
<!DOCTYPE svg PUBLIC "-//W3C//DTD SVG 1.1//EN" "http://www.w3.org/Graphics/SVG/1.1/DTD/svg11.dtd">
<svg version="1.1" xmlns="http://www.w3.org/2000/svg" xmlns:xlink="http://www.w3.org/1999/xlink" x="0px" y="0px" viewBox="0 0 256 256" enable-background="new 0 0 256 256" xml:space="preserve">
<metadata> Svg Vector Icons : http://www.onlinewebfonts.com/icon </metadata>
<g><g><path fill="#000000" d="M133.9,15.9c-41.3,0-77.9,22.4-96.8,56.6L10,45.4v76.7h76.7l-33-33C69,59.6,98.5,39.5,133.9,39.5c48.4,0,88.5,40.1,88.5,88.5c0,48.4-40.1,88.5-88.5,88.5c-38.9,0-70.8-24.8-83.8-59H25.3c13,47.2,56.6,82.6,108.6,82.6c62.5,0,112.1-50.7,112.1-112.1C246,66.6,195.3,15.9,133.9,15.9z M116.2,74.9v60.2l55.5,33l9.4-15.3l-47.2-28.3V74.9H116.2z"/></g></g>
</svg>