<?xml version="1.0" encoding="utf-8"?>
<!-- Svg Vector Icons : http://www.onlinewebfonts.com/icon -->
<!DOCTYPE svg PUBLIC "-//W3C//DTD SVG 1.1//EN" "http://www.w3.org/Graphics/SVG/1.1/DTD/svg11.dtd">
<svg version="1.1" xmlns="http://www.w3.org/2000/svg" xmlns:xlink="http://www.w3.org/1999/xlink" x="0px" y="0px" viewBox="0 0 256 256" enable-background="new 0 0 256 256" xml:space="preserve">
<metadata> Svg Vector Icons : http://www.onlinewebfonts.com/icon </metadata>
<g><g><g><path fill="#000000" d="M116.7,10.3C88.9,13.2,64,24.9,44.4,44.5c-18.8,18.8-29.9,41.6-33.9,69c-0.8,5.5-0.8,23.6,0,29.1c3.9,27.4,15.1,50.3,33.9,69c18.7,18.7,41.7,30,69,33.9c5.4,0.8,23.6,0.8,29.1,0c22.6-3.2,42.9-11.8,59.6-25.4c23.8-19.2,38.8-46.1,43.3-77.5c0.8-5.5,0.8-23.6,0-29.1c-3.9-27.3-15.1-50.3-33.9-69c-18.3-18.3-40.6-29.5-66.9-33.5C138.8,10.1,122.6,9.6,116.7,10.3z M136.8,39.8c11.2,1.2,20.4,3.9,30.7,9c17,8.5,30,21.2,38.9,38c9.8,18.5,12.7,39.7,8.2,60.1c-1.8,7.9-3.6,12.9-7.4,20.6c-8.8,17.7-22,30.9-39.7,39.7c-7.7,3.8-12.7,5.6-20.6,7.4c-20.4,4.5-41.6,1.6-60.1-8.2c-16.8-8.9-29.5-21.8-38-38.9c-5.1-10.3-7.9-19.5-9-30.7c-2.5-24.2,5.5-48.8,21.9-67.5C73.8,55.4,92,44.8,110,41.2C119,39.4,128.3,38.9,136.8,39.8z"/><path fill="#000000" d="M81,114.1c-3.4,1.2-6.1,3.6-8,7.1c-1.5,2.7-1.6,3.2-1.6,6.8c0,3.4,0.2,4.3,1.2,6.3c1.8,3.5,3.7,5.5,6.7,6.9l2.6,1.3l45.4,0.1l45.3,0.1l2.7-1c3.2-1.2,6.4-4.2,8-7.6c1-1.9,1.2-3,1.2-6.2c0-3.2-0.2-4.3-1.2-6.2c-1.6-3.3-4.9-6.4-8-7.6c-2.7-1-2.8-1-47.3-1C86.4,113.3,83.3,113.3,81,114.1z"/></g></g></g>
</svg>